<mxfile host="app.diagrams.net" modified="2022-05-19T14:17:34.205Z" agent="5.0 (Windows NT 10.0; Win64; x64) AppleWebKit/537.36 (KHTML, like Gecko) Chrome/101.0.4951.54 Safari/537.36" etag="3kh6kBnRTMzghI1jX-wU" version="17.4.6" type="github">
  <diagram id="R2lEEEUBdFMjLlhIrx00" name="Page-1">
    <mxGraphModel dx="1483" dy="827" grid="1" gridSize="10" guides="1" tooltips="1" connect="1" arrows="1" fold="1" page="1" pageScale="1" pageWidth="3300" pageHeight="4681" math="0" shadow="0" extFonts="Permanent Marker^https://fonts.googleapis.com/css?family=Permanent+Marker">
      <root>
        <mxCell id="0" />
        <mxCell id="1" parent="0" />
        <mxCell id="9npJD4MUNXHP4Evoc8jH-2" value="储户" style="whiteSpace=wrap;html=1;align=center;fontSize=16;" vertex="1" parent="1">
          <mxGeometry x="110" y="250" width="100" height="40" as="geometry" />
        </mxCell>
        <mxCell id="9npJD4MUNXHP4Evoc8jH-3" value="存款单" style="whiteSpace=wrap;html=1;align=center;fontFamily=Noto Sans SC;fontSource=https%3A%2F%2Ffonts.googleapis.com%2Fcss%3Ffamily%3DNoto%2BSans%2BSC;fontSize=16;" vertex="1" parent="1">
          <mxGeometry x="470" y="190" width="100" height="40" as="geometry" />
        </mxCell>
        <mxCell id="9npJD4MUNXHP4Evoc8jH-4" value="取款单" style="whiteSpace=wrap;html=1;align=center;fontFamily=Noto Sans SC;fontSource=https%3A%2F%2Ffonts.googleapis.com%2Fcss%3Ffamily%3DNoto%2BSans%2BSC;fontSize=16;" vertex="1" parent="1">
          <mxGeometry x="470" y="310" width="100" height="40" as="geometry" />
        </mxCell>
        <mxCell id="9npJD4MUNXHP4Evoc8jH-5" value="业务员" style="whiteSpace=wrap;html=1;align=center;fontFamily=Noto Sans SC;fontSource=https%3A%2F%2Ffonts.googleapis.com%2Fcss%3Ffamily%3DNoto%2BSans%2BSC;fontSize=16;" vertex="1" parent="1">
          <mxGeometry x="830" y="250" width="100" height="40" as="geometry" />
        </mxCell>
        <mxCell id="9npJD4MUNXHP4Evoc8jH-6" value="填写" style="shape=rhombus;perimeter=rhombusPerimeter;whiteSpace=wrap;html=1;align=center;fontFamily=Noto Sans SC;fontSource=https%3A%2F%2Ffonts.googleapis.com%2Fcss%3Ffamily%3DNoto%2BSans%2BSC;fontSize=16;" vertex="1" parent="1">
          <mxGeometry x="270" y="240" width="120" height="60" as="geometry" />
        </mxCell>
        <mxCell id="9npJD4MUNXHP4Evoc8jH-8" value="" style="endArrow=none;html=1;rounded=0;fontFamily=Noto Sans SC;fontSource=https%3A%2F%2Ffonts.googleapis.com%2Fcss%3Ffamily%3DNoto%2BSans%2BSC;fontSize=16;entryX=0;entryY=0.5;entryDx=0;entryDy=0;" edge="1" parent="1" target="9npJD4MUNXHP4Evoc8jH-6">
          <mxGeometry relative="1" as="geometry">
            <mxPoint x="210" y="270" as="sourcePoint" />
            <mxPoint x="370" y="270" as="targetPoint" />
          </mxGeometry>
        </mxCell>
        <mxCell id="9npJD4MUNXHP4Evoc8jH-10" value="" style="endArrow=none;html=1;rounded=0;fontFamily=Noto Sans SC;fontSource=https%3A%2F%2Ffonts.googleapis.com%2Fcss%3Ffamily%3DNoto%2BSans%2BSC;fontSize=16;entryX=0;entryY=0.5;entryDx=0;entryDy=0;" edge="1" parent="1" target="9npJD4MUNXHP4Evoc8jH-3">
          <mxGeometry relative="1" as="geometry">
            <mxPoint x="330" y="240" as="sourcePoint" />
            <mxPoint x="490" y="240" as="targetPoint" />
          </mxGeometry>
        </mxCell>
        <mxCell id="9npJD4MUNXHP4Evoc8jH-12" value="" style="endArrow=none;html=1;rounded=0;fontFamily=Noto Sans SC;fontSource=https%3A%2F%2Ffonts.googleapis.com%2Fcss%3Ffamily%3DNoto%2BSans%2BSC;fontSize=16;entryX=0;entryY=0.5;entryDx=0;entryDy=0;" edge="1" parent="1" target="9npJD4MUNXHP4Evoc8jH-4">
          <mxGeometry relative="1" as="geometry">
            <mxPoint x="330" y="300" as="sourcePoint" />
            <mxPoint x="490" y="300" as="targetPoint" />
          </mxGeometry>
        </mxCell>
        <mxCell id="9npJD4MUNXHP4Evoc8jH-13" value="读" style="shape=rhombus;perimeter=rhombusPerimeter;whiteSpace=wrap;html=1;align=center;fontFamily=Noto Sans SC;fontSource=https%3A%2F%2Ffonts.googleapis.com%2Fcss%3Ffamily%3DNoto%2BSans%2BSC;fontSize=16;" vertex="1" parent="1">
          <mxGeometry x="650" y="240" width="120" height="60" as="geometry" />
        </mxCell>
        <mxCell id="9npJD4MUNXHP4Evoc8jH-14" value="" style="endArrow=none;html=1;rounded=0;fontFamily=Noto Sans SC;fontSource=https%3A%2F%2Ffonts.googleapis.com%2Fcss%3Ffamily%3DNoto%2BSans%2BSC;fontSize=16;entryX=0.5;entryY=0;entryDx=0;entryDy=0;" edge="1" parent="1" target="9npJD4MUNXHP4Evoc8jH-13">
          <mxGeometry relative="1" as="geometry">
            <mxPoint x="570" y="209.5" as="sourcePoint" />
            <mxPoint x="730" y="209.5" as="targetPoint" />
          </mxGeometry>
        </mxCell>
        <mxCell id="9npJD4MUNXHP4Evoc8jH-15" value="" style="endArrow=none;html=1;rounded=0;fontFamily=Noto Sans SC;fontSource=https%3A%2F%2Ffonts.googleapis.com%2Fcss%3Ffamily%3DNoto%2BSans%2BSC;fontSize=16;entryX=0.5;entryY=1;entryDx=0;entryDy=0;" edge="1" parent="1" target="9npJD4MUNXHP4Evoc8jH-13">
          <mxGeometry relative="1" as="geometry">
            <mxPoint x="570" y="330" as="sourcePoint" />
            <mxPoint x="730" y="330" as="targetPoint" />
          </mxGeometry>
        </mxCell>
        <mxCell id="9npJD4MUNXHP4Evoc8jH-17" value="" style="endArrow=none;html=1;rounded=0;fontFamily=Noto Sans SC;fontSource=https%3A%2F%2Ffonts.googleapis.com%2Fcss%3Ffamily%3DNoto%2BSans%2BSC;fontSize=16;entryX=0;entryY=0.5;entryDx=0;entryDy=0;" edge="1" parent="1" target="9npJD4MUNXHP4Evoc8jH-5">
          <mxGeometry relative="1" as="geometry">
            <mxPoint x="770" y="269.5" as="sourcePoint" />
            <mxPoint x="930" y="269.5" as="targetPoint" />
          </mxGeometry>
        </mxCell>
        <mxCell id="9npJD4MUNXHP4Evoc8jH-18" value="姓名" style="ellipse;whiteSpace=wrap;html=1;align=center;fontFamily=Noto Sans SC;fontSource=https%3A%2F%2Ffonts.googleapis.com%2Fcss%3Ffamily%3DNoto%2BSans%2BSC;fontSize=16;" vertex="1" parent="1">
          <mxGeometry x="400" y="390" width="100" height="40" as="geometry" />
        </mxCell>
        <mxCell id="9npJD4MUNXHP4Evoc8jH-19" value="密码" style="ellipse;whiteSpace=wrap;html=1;align=center;fontFamily=Noto Sans SC;fontSource=https%3A%2F%2Ffonts.googleapis.com%2Fcss%3Ffamily%3DNoto%2BSans%2BSC;fontSize=16;" vertex="1" parent="1">
          <mxGeometry x="540" y="390" width="100" height="40" as="geometry" />
        </mxCell>
        <mxCell id="9npJD4MUNXHP4Evoc8jH-20" value="" style="endArrow=none;html=1;rounded=0;fontFamily=Noto Sans SC;fontSource=https%3A%2F%2Ffonts.googleapis.com%2Fcss%3Ffamily%3DNoto%2BSans%2BSC;fontSize=16;entryX=0.5;entryY=1;entryDx=0;entryDy=0;" edge="1" parent="1" target="9npJD4MUNXHP4Evoc8jH-4">
          <mxGeometry relative="1" as="geometry">
            <mxPoint x="450" y="389" as="sourcePoint" />
            <mxPoint x="610" y="389" as="targetPoint" />
          </mxGeometry>
        </mxCell>
        <mxCell id="9npJD4MUNXHP4Evoc8jH-21" value="" style="endArrow=none;html=1;rounded=0;fontFamily=Noto Sans SC;fontSource=https%3A%2F%2Ffonts.googleapis.com%2Fcss%3Ffamily%3DNoto%2BSans%2BSC;fontSize=16;entryX=0.5;entryY=0;entryDx=0;entryDy=0;" edge="1" parent="1" target="9npJD4MUNXHP4Evoc8jH-19">
          <mxGeometry relative="1" as="geometry">
            <mxPoint x="520" y="350" as="sourcePoint" />
            <mxPoint x="680" y="350" as="targetPoint" />
          </mxGeometry>
        </mxCell>
        <mxCell id="9npJD4MUNXHP4Evoc8jH-22" value="索取" style="shape=rhombus;perimeter=rhombusPerimeter;whiteSpace=wrap;html=1;align=center;fontFamily=Noto Sans SC;fontSource=https%3A%2F%2Ffonts.googleapis.com%2Fcss%3Ffamily%3DNoto%2BSans%2BSC;fontSize=16;" vertex="1" parent="1">
          <mxGeometry x="100" y="350" width="120" height="60" as="geometry" />
        </mxCell>
        <mxCell id="9npJD4MUNXHP4Evoc8jH-24" value="" style="endArrow=none;html=1;rounded=0;fontFamily=Noto Sans SC;fontSource=https%3A%2F%2Ffonts.googleapis.com%2Fcss%3Ffamily%3DNoto%2BSans%2BSC;fontSize=16;entryX=0.5;entryY=0;entryDx=0;entryDy=0;" edge="1" parent="1" target="9npJD4MUNXHP4Evoc8jH-22">
          <mxGeometry relative="1" as="geometry">
            <mxPoint x="160" y="290" as="sourcePoint" />
            <mxPoint x="320" y="290" as="targetPoint" />
          </mxGeometry>
        </mxCell>
        <mxCell id="9npJD4MUNXHP4Evoc8jH-25" value="存款凭据" style="whiteSpace=wrap;html=1;align=center;fontFamily=Noto Sans SC;fontSource=https%3A%2F%2Ffonts.googleapis.com%2Fcss%3Ffamily%3DNoto%2BSans%2BSC;fontSize=16;" vertex="1" parent="1">
          <mxGeometry x="30" y="470" width="100" height="40" as="geometry" />
        </mxCell>
        <mxCell id="9npJD4MUNXHP4Evoc8jH-26" value="取款凭据" style="whiteSpace=wrap;html=1;align=center;fontFamily=Noto Sans SC;fontSource=https%3A%2F%2Ffonts.googleapis.com%2Fcss%3Ffamily%3DNoto%2BSans%2BSC;fontSize=16;" vertex="1" parent="1">
          <mxGeometry x="190" y="470" width="100" height="40" as="geometry" />
        </mxCell>
        <mxCell id="9npJD4MUNXHP4Evoc8jH-28" value="" style="endArrow=none;html=1;rounded=0;fontFamily=Noto Sans SC;fontSource=https%3A%2F%2Ffonts.googleapis.com%2Fcss%3Ffamily%3DNoto%2BSans%2BSC;fontSize=16;entryX=0.5;entryY=1;entryDx=0;entryDy=0;" edge="1" parent="1" target="9npJD4MUNXHP4Evoc8jH-22">
          <mxGeometry relative="1" as="geometry">
            <mxPoint x="80" y="470" as="sourcePoint" />
            <mxPoint x="240" y="470" as="targetPoint" />
          </mxGeometry>
        </mxCell>
        <mxCell id="9npJD4MUNXHP4Evoc8jH-30" value="" style="endArrow=none;html=1;rounded=0;fontFamily=Noto Sans SC;fontSource=https%3A%2F%2Ffonts.googleapis.com%2Fcss%3Ffamily%3DNoto%2BSans%2BSC;fontSize=16;entryX=0.5;entryY=0;entryDx=0;entryDy=0;" edge="1" parent="1" target="9npJD4MUNXHP4Evoc8jH-26">
          <mxGeometry relative="1" as="geometry">
            <mxPoint x="160" y="410" as="sourcePoint" />
            <mxPoint x="320" y="410" as="targetPoint" />
          </mxGeometry>
        </mxCell>
        <mxCell id="9npJD4MUNXHP4Evoc8jH-31" value="密码" style="ellipse;whiteSpace=wrap;html=1;align=center;fontFamily=Noto Sans SC;fontSource=https%3A%2F%2Ffonts.googleapis.com%2Fcss%3Ffamily%3DNoto%2BSans%2BSC;fontSize=16;" vertex="1" parent="1">
          <mxGeometry x="340" y="110" width="100" height="40" as="geometry" />
        </mxCell>
        <mxCell id="9npJD4MUNXHP4Evoc8jH-32" value="姓名" style="ellipse;whiteSpace=wrap;html=1;align=center;fontFamily=Noto Sans SC;fontSource=https%3A%2F%2Ffonts.googleapis.com%2Fcss%3Ffamily%3DNoto%2BSans%2BSC;fontSize=16;" vertex="1" parent="1">
          <mxGeometry x="310" y="160" width="100" height="40" as="geometry" />
        </mxCell>
        <mxCell id="9npJD4MUNXHP4Evoc8jH-33" value="住址" style="ellipse;whiteSpace=wrap;html=1;align=center;fontFamily=Noto Sans SC;fontSource=https%3A%2F%2Ffonts.googleapis.com%2Fcss%3Ffamily%3DNoto%2BSans%2BSC;fontSize=16;" vertex="1" parent="1">
          <mxGeometry x="390" y="70" width="100" height="40" as="geometry" />
        </mxCell>
        <mxCell id="9npJD4MUNXHP4Evoc8jH-34" value="电话号码" style="ellipse;whiteSpace=wrap;html=1;align=center;fontFamily=Noto Sans SC;fontSource=https%3A%2F%2Ffonts.googleapis.com%2Fcss%3Ffamily%3DNoto%2BSans%2BSC;fontSize=16;" vertex="1" parent="1">
          <mxGeometry x="470" y="40" width="100" height="40" as="geometry" />
        </mxCell>
        <mxCell id="9npJD4MUNXHP4Evoc8jH-35" value="身份证号" style="ellipse;whiteSpace=wrap;html=1;align=center;fontFamily=Noto Sans SC;fontSource=https%3A%2F%2Ffonts.googleapis.com%2Fcss%3Ffamily%3DNoto%2BSans%2BSC;fontSize=16;" vertex="1" parent="1">
          <mxGeometry x="550" y="70" width="100" height="40" as="geometry" />
        </mxCell>
        <mxCell id="9npJD4MUNXHP4Evoc8jH-36" value="到期日期" style="ellipse;whiteSpace=wrap;html=1;align=center;fontFamily=Noto Sans SC;fontSource=https%3A%2F%2Ffonts.googleapis.com%2Fcss%3Ffamily%3DNoto%2BSans%2BSC;fontSize=16;" vertex="1" parent="1">
          <mxGeometry x="600" y="110" width="100" height="40" as="geometry" />
        </mxCell>
        <mxCell id="9npJD4MUNXHP4Evoc8jH-37" value="存款日期" style="ellipse;whiteSpace=wrap;html=1;align=center;fontFamily=Noto Sans SC;fontSource=https%3A%2F%2Ffonts.googleapis.com%2Fcss%3Ffamily%3DNoto%2BSans%2BSC;fontSize=16;" vertex="1" parent="1">
          <mxGeometry x="630" y="160" width="100" height="40" as="geometry" />
        </mxCell>
        <mxCell id="9npJD4MUNXHP4Evoc8jH-38" value="" style="endArrow=none;html=1;rounded=0;fontFamily=Noto Sans SC;fontSource=https%3A%2F%2Ffonts.googleapis.com%2Fcss%3Ffamily%3DNoto%2BSans%2BSC;fontSize=16;entryX=0.5;entryY=0;entryDx=0;entryDy=0;" edge="1" parent="1" target="9npJD4MUNXHP4Evoc8jH-3">
          <mxGeometry relative="1" as="geometry">
            <mxPoint x="410" y="180" as="sourcePoint" />
            <mxPoint x="570" y="180" as="targetPoint" />
          </mxGeometry>
        </mxCell>
        <mxCell id="9npJD4MUNXHP4Evoc8jH-39" value="" style="endArrow=none;html=1;rounded=0;fontFamily=Noto Sans SC;fontSource=https%3A%2F%2Ffonts.googleapis.com%2Fcss%3Ffamily%3DNoto%2BSans%2BSC;fontSize=16;" edge="1" parent="1">
          <mxGeometry relative="1" as="geometry">
            <mxPoint x="520" y="190" as="sourcePoint" />
            <mxPoint x="630" y="180" as="targetPoint" />
          </mxGeometry>
        </mxCell>
        <mxCell id="9npJD4MUNXHP4Evoc8jH-40" value="" style="endArrow=none;html=1;rounded=0;fontFamily=Noto Sans SC;fontSource=https%3A%2F%2Ffonts.googleapis.com%2Fcss%3Ffamily%3DNoto%2BSans%2BSC;fontSize=16;entryX=0;entryY=0.5;entryDx=0;entryDy=0;" edge="1" parent="1" target="9npJD4MUNXHP4Evoc8jH-36">
          <mxGeometry relative="1" as="geometry">
            <mxPoint x="520" y="190" as="sourcePoint" />
            <mxPoint x="680" y="190" as="targetPoint" />
          </mxGeometry>
        </mxCell>
        <mxCell id="9npJD4MUNXHP4Evoc8jH-41" value="" style="endArrow=none;html=1;rounded=0;fontFamily=Noto Sans SC;fontSource=https%3A%2F%2Ffonts.googleapis.com%2Fcss%3Ffamily%3DNoto%2BSans%2BSC;fontSize=16;entryX=0;entryY=1;entryDx=0;entryDy=0;" edge="1" parent="1" target="9npJD4MUNXHP4Evoc8jH-35">
          <mxGeometry relative="1" as="geometry">
            <mxPoint x="520" y="190" as="sourcePoint" />
            <mxPoint x="680" y="190" as="targetPoint" />
          </mxGeometry>
        </mxCell>
        <mxCell id="9npJD4MUNXHP4Evoc8jH-42" value="" style="endArrow=none;html=1;rounded=0;fontFamily=Noto Sans SC;fontSource=https%3A%2F%2Ffonts.googleapis.com%2Fcss%3Ffamily%3DNoto%2BSans%2BSC;fontSize=16;entryX=0.5;entryY=1;entryDx=0;entryDy=0;" edge="1" parent="1" target="9npJD4MUNXHP4Evoc8jH-34">
          <mxGeometry relative="1" as="geometry">
            <mxPoint x="520" y="190" as="sourcePoint" />
            <mxPoint x="680" y="190" as="targetPoint" />
          </mxGeometry>
        </mxCell>
        <mxCell id="9npJD4MUNXHP4Evoc8jH-43" value="" style="endArrow=none;html=1;rounded=0;fontFamily=Noto Sans SC;fontSource=https%3A%2F%2Ffonts.googleapis.com%2Fcss%3Ffamily%3DNoto%2BSans%2BSC;fontSize=16;entryX=1;entryY=1;entryDx=0;entryDy=0;" edge="1" parent="1" target="9npJD4MUNXHP4Evoc8jH-31">
          <mxGeometry relative="1" as="geometry">
            <mxPoint x="520" y="190" as="sourcePoint" />
            <mxPoint x="680" y="190" as="targetPoint" />
          </mxGeometry>
        </mxCell>
        <mxCell id="9npJD4MUNXHP4Evoc8jH-44" value="" style="endArrow=none;html=1;rounded=0;fontFamily=Noto Sans SC;fontSource=https%3A%2F%2Ffonts.googleapis.com%2Fcss%3Ffamily%3DNoto%2BSans%2BSC;fontSize=16;entryX=1;entryY=1;entryDx=0;entryDy=0;" edge="1" parent="1" target="9npJD4MUNXHP4Evoc8jH-33">
          <mxGeometry relative="1" as="geometry">
            <mxPoint x="520" y="190" as="sourcePoint" />
            <mxPoint x="680" y="190" as="targetPoint" />
          </mxGeometry>
        </mxCell>
        <mxCell id="9npJD4MUNXHP4Evoc8jH-45" value="输入" style="shape=rhombus;perimeter=rhombusPerimeter;whiteSpace=wrap;html=1;align=center;fontFamily=Noto Sans SC;fontSource=https%3A%2F%2Ffonts.googleapis.com%2Fcss%3Ffamily%3DNoto%2BSans%2BSC;fontSize=16;" vertex="1" parent="1">
          <mxGeometry x="820" y="350" width="120" height="60" as="geometry" />
        </mxCell>
        <mxCell id="9npJD4MUNXHP4Evoc8jH-46" value="业务信息" style="whiteSpace=wrap;html=1;align=center;fontFamily=Noto Sans SC;fontSource=https%3A%2F%2Ffonts.googleapis.com%2Fcss%3Ffamily%3DNoto%2BSans%2BSC;fontSize=16;" vertex="1" parent="1">
          <mxGeometry x="830" y="470" width="100" height="40" as="geometry" />
        </mxCell>
        <mxCell id="9npJD4MUNXHP4Evoc8jH-47" value="" style="endArrow=none;html=1;rounded=0;fontFamily=Noto Sans SC;fontSource=https%3A%2F%2Ffonts.googleapis.com%2Fcss%3Ffamily%3DNoto%2BSans%2BSC;fontSize=16;entryX=0.5;entryY=0;entryDx=0;entryDy=0;" edge="1" parent="1" target="9npJD4MUNXHP4Evoc8jH-45">
          <mxGeometry relative="1" as="geometry">
            <mxPoint x="880" y="290" as="sourcePoint" />
            <mxPoint x="1040" y="290" as="targetPoint" />
          </mxGeometry>
        </mxCell>
        <mxCell id="9npJD4MUNXHP4Evoc8jH-48" value="" style="endArrow=none;html=1;rounded=0;fontFamily=Noto Sans SC;fontSource=https%3A%2F%2Ffonts.googleapis.com%2Fcss%3Ffamily%3DNoto%2BSans%2BSC;fontSize=16;entryX=0.5;entryY=0;entryDx=0;entryDy=0;" edge="1" parent="1" target="9npJD4MUNXHP4Evoc8jH-46">
          <mxGeometry relative="1" as="geometry">
            <mxPoint x="880" y="410" as="sourcePoint" />
            <mxPoint x="1040" y="410" as="targetPoint" />
          </mxGeometry>
        </mxCell>
        <mxCell id="9npJD4MUNXHP4Evoc8jH-49" value="账户号码" style="ellipse;whiteSpace=wrap;html=1;align=center;fontFamily=Noto Sans SC;fontSource=https%3A%2F%2Ffonts.googleapis.com%2Fcss%3Ffamily%3DNoto%2BSans%2BSC;fontSize=16;" vertex="1" parent="1">
          <mxGeometry x="720" y="540" width="100" height="40" as="geometry" />
        </mxCell>
        <mxCell id="9npJD4MUNXHP4Evoc8jH-50" value="业务类型" style="ellipse;whiteSpace=wrap;html=1;align=center;fontFamily=Noto Sans SC;fontSource=https%3A%2F%2Ffonts.googleapis.com%2Fcss%3Ffamily%3DNoto%2BSans%2BSC;fontSize=16;" vertex="1" parent="1">
          <mxGeometry x="940" y="540" width="100" height="40" as="geometry" />
        </mxCell>
        <mxCell id="9npJD4MUNXHP4Evoc8jH-51" value="交易金额" style="ellipse;whiteSpace=wrap;html=1;align=center;fontFamily=Noto Sans SC;fontSource=https%3A%2F%2Ffonts.googleapis.com%2Fcss%3Ffamily%3DNoto%2BSans%2BSC;fontSize=16;" vertex="1" parent="1">
          <mxGeometry x="830" y="570" width="100" height="40" as="geometry" />
        </mxCell>
        <mxCell id="9npJD4MUNXHP4Evoc8jH-52" value="" style="endArrow=none;html=1;rounded=0;fontFamily=Noto Sans SC;fontSource=https%3A%2F%2Ffonts.googleapis.com%2Fcss%3Ffamily%3DNoto%2BSans%2BSC;fontSize=16;entryX=0.5;entryY=1;entryDx=0;entryDy=0;" edge="1" parent="1" target="9npJD4MUNXHP4Evoc8jH-46">
          <mxGeometry relative="1" as="geometry">
            <mxPoint x="770" y="540" as="sourcePoint" />
            <mxPoint x="930" y="540" as="targetPoint" />
          </mxGeometry>
        </mxCell>
        <mxCell id="9npJD4MUNXHP4Evoc8jH-53" value="" style="endArrow=none;html=1;rounded=0;fontFamily=Noto Sans SC;fontSource=https%3A%2F%2Ffonts.googleapis.com%2Fcss%3Ffamily%3DNoto%2BSans%2BSC;fontSize=16;" edge="1" parent="1">
          <mxGeometry relative="1" as="geometry">
            <mxPoint x="880" y="570" as="sourcePoint" />
            <mxPoint x="880" y="510" as="targetPoint" />
          </mxGeometry>
        </mxCell>
        <mxCell id="9npJD4MUNXHP4Evoc8jH-54" value="" style="endArrow=none;html=1;rounded=0;fontFamily=Noto Sans SC;fontSource=https%3A%2F%2Ffonts.googleapis.com%2Fcss%3Ffamily%3DNoto%2BSans%2BSC;fontSize=16;entryX=0.5;entryY=0;entryDx=0;entryDy=0;" edge="1" parent="1" target="9npJD4MUNXHP4Evoc8jH-50">
          <mxGeometry relative="1" as="geometry">
            <mxPoint x="880" y="510" as="sourcePoint" />
            <mxPoint x="1040" y="510" as="targetPoint" />
          </mxGeometry>
        </mxCell>
      </root>
    </mxGraphModel>
  </diagram>
</mxfile>
